<mxfile host="app.diagrams.net" modified="2024-04-10T16:52:33.470Z" agent="Mozilla/5.0 (Windows NT 10.0; Win64; x64) AppleWebKit/537.36 (KHTML, like Gecko) Chrome/123.0.0.0 Safari/537.36 Edg/123.0.0.0" etag="1BoqgXfE0tVY4krahjoN" version="24.2.3" type="device">
  <diagram name="PÃ¡gina-1" id="nvY-xBpsFhpEZPQq37yl">
    <mxGraphModel dx="1112" dy="481" grid="1" gridSize="10" guides="1" tooltips="1" connect="1" arrows="1" fold="1" page="1" pageScale="1" pageWidth="827" pageHeight="1169" math="0" shadow="0">
      <root>
        <mxCell id="0" />
        <mxCell id="1" parent="0" />
        <mxCell id="3t0EleENgYjhzp3F725n-5" value="" style="edgeStyle=orthogonalEdgeStyle;rounded=0;orthogonalLoop=1;jettySize=auto;html=1;" edge="1" parent="1" source="3t0EleENgYjhzp3F725n-1" target="3t0EleENgYjhzp3F725n-4">
          <mxGeometry relative="1" as="geometry" />
        </mxCell>
        <mxCell id="3t0EleENgYjhzp3F725n-1" value="" style="ellipse;whiteSpace=wrap;html=1;aspect=fixed;fillColor=#171717;" vertex="1" parent="1">
          <mxGeometry x="70" y="120" width="50" height="50" as="geometry" />
        </mxCell>
        <mxCell id="3t0EleENgYjhzp3F725n-2" value="&lt;font style=&quot;font-size: 14px;&quot;&gt;As a client, I want to watch the vehicles, so that I can make a choice of what car buy.&lt;/font&gt;" style="text;html=1;align=center;verticalAlign=middle;whiteSpace=wrap;rounded=0;" vertex="1" parent="1">
          <mxGeometry x="150" y="50" width="550" height="30" as="geometry" />
        </mxCell>
        <mxCell id="3t0EleENgYjhzp3F725n-9" value="" style="edgeStyle=orthogonalEdgeStyle;rounded=0;orthogonalLoop=1;jettySize=auto;html=1;" edge="1" parent="1" target="3t0EleENgYjhzp3F725n-8">
          <mxGeometry relative="1" as="geometry">
            <mxPoint x="140" y="250" as="sourcePoint" />
          </mxGeometry>
        </mxCell>
        <mxCell id="3t0EleENgYjhzp3F725n-10" value="No" style="edgeLabel;html=1;align=center;verticalAlign=middle;resizable=0;points=[];" vertex="1" connectable="0" parent="3t0EleENgYjhzp3F725n-9">
          <mxGeometry x="0.3462" y="-2" relative="1" as="geometry">
            <mxPoint as="offset" />
          </mxGeometry>
        </mxCell>
        <mxCell id="3t0EleENgYjhzp3F725n-15" value="" style="edgeStyle=orthogonalEdgeStyle;rounded=0;orthogonalLoop=1;jettySize=auto;html=1;" edge="1" parent="1" source="3t0EleENgYjhzp3F725n-4" target="3t0EleENgYjhzp3F725n-14">
          <mxGeometry relative="1" as="geometry" />
        </mxCell>
        <mxCell id="3t0EleENgYjhzp3F725n-16" value="Yes" style="edgeLabel;html=1;align=center;verticalAlign=middle;resizable=0;points=[];" vertex="1" connectable="0" parent="3t0EleENgYjhzp3F725n-15">
          <mxGeometry x="-0.2" y="1" relative="1" as="geometry">
            <mxPoint as="offset" />
          </mxGeometry>
        </mxCell>
        <mxCell id="3t0EleENgYjhzp3F725n-4" value="User is registered?" style="rhombus;whiteSpace=wrap;html=1;" vertex="1" parent="1">
          <mxGeometry x="17.5" y="210" width="155" height="80" as="geometry" />
        </mxCell>
        <mxCell id="3t0EleENgYjhzp3F725n-19" style="edgeStyle=orthogonalEdgeStyle;rounded=0;orthogonalLoop=1;jettySize=auto;html=1;entryX=0.5;entryY=0;entryDx=0;entryDy=0;" edge="1" parent="1" source="3t0EleENgYjhzp3F725n-8" target="3t0EleENgYjhzp3F725n-17">
          <mxGeometry relative="1" as="geometry" />
        </mxCell>
        <mxCell id="3t0EleENgYjhzp3F725n-8" value="Sign up" style="whiteSpace=wrap;html=1;" vertex="1" parent="1">
          <mxGeometry x="217.5" y="220" width="120" height="60" as="geometry" />
        </mxCell>
        <mxCell id="3t0EleENgYjhzp3F725n-18" value="" style="edgeStyle=orthogonalEdgeStyle;rounded=0;orthogonalLoop=1;jettySize=auto;html=1;" edge="1" parent="1" source="3t0EleENgYjhzp3F725n-14" target="3t0EleENgYjhzp3F725n-17">
          <mxGeometry relative="1" as="geometry" />
        </mxCell>
        <mxCell id="3t0EleENgYjhzp3F725n-14" value="Sign in" style="whiteSpace=wrap;html=1;" vertex="1" parent="1">
          <mxGeometry x="35" y="330" width="120" height="60" as="geometry" />
        </mxCell>
        <mxCell id="3t0EleENgYjhzp3F725n-21" value="" style="edgeStyle=orthogonalEdgeStyle;rounded=0;orthogonalLoop=1;jettySize=auto;html=1;" edge="1" parent="1" target="3t0EleENgYjhzp3F725n-20">
          <mxGeometry relative="1" as="geometry">
            <mxPoint x="320" y="360" as="sourcePoint" />
          </mxGeometry>
        </mxCell>
        <mxCell id="3t0EleENgYjhzp3F725n-17" value="Enter username and password" style="whiteSpace=wrap;html=1;" vertex="1" parent="1">
          <mxGeometry x="218" y="330" width="120" height="60" as="geometry" />
        </mxCell>
        <mxCell id="3t0EleENgYjhzp3F725n-23" value="" style="edgeStyle=orthogonalEdgeStyle;rounded=0;orthogonalLoop=1;jettySize=auto;html=1;" edge="1" parent="1" source="3t0EleENgYjhzp3F725n-20" target="3t0EleENgYjhzp3F725n-22">
          <mxGeometry relative="1" as="geometry" />
        </mxCell>
        <mxCell id="3t0EleENgYjhzp3F725n-24" value="No" style="edgeLabel;html=1;align=center;verticalAlign=middle;resizable=0;points=[];" vertex="1" connectable="0" parent="3t0EleENgYjhzp3F725n-23">
          <mxGeometry x="-0.25" y="-2" relative="1" as="geometry">
            <mxPoint as="offset" />
          </mxGeometry>
        </mxCell>
        <mxCell id="3t0EleENgYjhzp3F725n-29" value="" style="edgeStyle=orthogonalEdgeStyle;rounded=0;orthogonalLoop=1;jettySize=auto;html=1;" edge="1" parent="1" source="3t0EleENgYjhzp3F725n-20" target="3t0EleENgYjhzp3F725n-28">
          <mxGeometry relative="1" as="geometry" />
        </mxCell>
        <mxCell id="3t0EleENgYjhzp3F725n-30" value="Yes" style="edgeLabel;html=1;align=center;verticalAlign=middle;resizable=0;points=[];" vertex="1" connectable="0" parent="3t0EleENgYjhzp3F725n-29">
          <mxGeometry x="-0.32" y="-4" relative="1" as="geometry">
            <mxPoint y="-4" as="offset" />
          </mxGeometry>
        </mxCell>
        <mxCell id="3t0EleENgYjhzp3F725n-20" value="Information is correct?" style="rhombus;whiteSpace=wrap;html=1;" vertex="1" parent="1">
          <mxGeometry x="396" y="320" width="144" height="80" as="geometry" />
        </mxCell>
        <mxCell id="3t0EleENgYjhzp3F725n-32" style="edgeStyle=orthogonalEdgeStyle;rounded=0;orthogonalLoop=1;jettySize=auto;html=1;entryX=0;entryY=0.5;entryDx=0;entryDy=0;" edge="1" parent="1" source="3t0EleENgYjhzp3F725n-22" target="3t0EleENgYjhzp3F725n-31">
          <mxGeometry relative="1" as="geometry" />
        </mxCell>
        <mxCell id="3t0EleENgYjhzp3F725n-22" value="Show error message" style="whiteSpace=wrap;html=1;" vertex="1" parent="1">
          <mxGeometry x="408" y="220" width="120" height="60" as="geometry" />
        </mxCell>
        <mxCell id="3t0EleENgYjhzp3F725n-33" style="edgeStyle=orthogonalEdgeStyle;rounded=0;orthogonalLoop=1;jettySize=auto;html=1;entryX=0.5;entryY=1;entryDx=0;entryDy=0;" edge="1" parent="1" source="3t0EleENgYjhzp3F725n-28" target="3t0EleENgYjhzp3F725n-31">
          <mxGeometry relative="1" as="geometry" />
        </mxCell>
        <mxCell id="3t0EleENgYjhzp3F725n-28" value="Watch vehicles" style="whiteSpace=wrap;html=1;" vertex="1" parent="1">
          <mxGeometry x="590" y="330" width="120" height="60" as="geometry" />
        </mxCell>
        <mxCell id="3t0EleENgYjhzp3F725n-31" value="" style="ellipse;whiteSpace=wrap;html=1;aspect=fixed;" vertex="1" parent="1">
          <mxGeometry x="625" y="225" width="50" height="50" as="geometry" />
        </mxCell>
        <mxCell id="3t0EleENgYjhzp3F725n-34" value="" style="ellipse;whiteSpace=wrap;html=1;aspect=fixed;fillColor=#171717;" vertex="1" parent="1">
          <mxGeometry x="630" y="230" width="40" height="40" as="geometry" />
        </mxCell>
      </root>
    </mxGraphModel>
  </diagram>
</mxfile>
